# xmcd
#
# Track frame offsets:
#	150
#	17275
#	36717
#	54371
#	78549
#	99467
#	123555
#	132774
#	148239
#	167701
#	183256
#	194266
#	220105
#	239924
#	263455
#
# Disc length: 3887 seconds
#
# Revision: 1
# Processed by: cddbd v1.5.2PL0 Copyright (c) Steve Scherf et al.
# Submitted via: audiograbber 1.83.01
#
DISCID=d50f2d0f
DTITLE=Joe Bonamassa - Black Rock
DYEAR=2010
DGENRE=Blues Rock
TTITLE0=Steal Your Heart Away
TTITLE1=I Know A Place
TTITLE2=When The Fire Hits The Sea
TTITLE3=Quarryman's Lament
TTITLE4=Spanish Boots
TTITLE5=Bird On A Wire
TTITLE6=Three Times A Fool
TTITLE7=Night Life
TTITLE8=Wandering Earth
TTITLE9=Look Over Yonders Wall
TTITLE10=Athens To Athens
TTITLE11=Blue And Evil
TTITLE12=Baby You Gotta Change Your Mind
TTITLE13=Can't Find No Mercy
TTITLE14=Ghains And Things
EXTD=
EXTT0=
EXTT1=
EXTT2=
EXTT3=
EXTT4=
EXTT5=
EXTT6=
EXTT7=
EXTT8=
EXTT9=
EXTT10=
EXTT11=
EXTT12=
EXTT13=
EXTT14=
PLAYORDER=
